<svg xmlns="http://www.w3.org/2000/svg" viewBox="0 0 128 128">
  <defs>
    <linearGradient id="g" x1="0" y1="0" x2="1" y2="1">
      <stop offset="0%" stop-color="#059669"/>
      <stop offset="100%" stop-color="#2563EB"/>
    </linearGradient>
  </defs>
  <rect width="128" height="128" rx="24" fill="url(#g)"/>
  <g fill="#fff">
    <path d="M64 20c18 0 30 10 34 20-10-4-18-2-26 5-4 3-9 5-14 5-5 0-10-2-14-5-8-7-16-9-26-5 4-10 16-20 34-20Z"/>
    <path d="M30 86c0-18 14-26 34-26s34 8 34 26c0 8-4 14-8 18H38c-4-4-8-10-8-18Z"/>
  </g>
</svg>
