<svg xmlns="http://www.w3.org/2000/svg" viewBox="0 0 256 256">
  <defs>
    <linearGradient id="g" x1="0" y1="0" x2="1" y2="1">
      <stop offset="0%" stop-color="#059669"/>
      <stop offset="100%" stop-color="#2563EB"/>
    </linearGradient>
  </defs>
  <rect width="256" height="256" rx="48" fill="url(#g)"/>
  <g fill="#fff">
    <path d="M128 40c36 0 60 20 68 40-20-8-36-4-52 10-8 6-18 10-28 10s-20-4-28-10c-16-14-32-18-52-10 8-20 32-40 68-40Z"/>
    <path d="M60 172c0-36 28-52 68-52s68 16 68 52c0 16-8 28-16 36H76c-8-8-16-20-16-36Z"/>
  </g>
</svg>
