<svg xmlns="http://www.w3.org/2000/svg" viewBox="0 0 512 512">
  <defs>
    <linearGradient id="g" x1="0" y1="0" x2="1" y2="1">
      <stop offset="0%" stop-color="#059669"/>
      <stop offset="100%" stop-color="#2563EB"/>
    </linearGradient>
  </defs>
  <rect width="512" height="512" rx="64" fill="url(#g)"/>
  <circle cx="256" cy="256" r="140" fill="rgba(255,255,255,0.15)"/>
  <g fill="#fff">
    <path d="M256 96c72 0 120 40 136 80-40-16-72-8-104 20-16 12-36 20-56 20s-40-8-56-20c-32-28-64-36-104-20 16-40 64-80 136-80Z"/>
    <path d="M120 344c0-72 56-104 136-104s136 32 136 104c0 32-16 56-32 72H152c-16-16-32-40-32-72Z"/>
  </g>
</svg>
